<?xml version="1.0" encoding="utf-8"?>
<!-- Generator: Adobe Illustrator 19.2.1, SVG Export Plug-In . SVG Version: 6.00 Build 0)  -->
<svg version="1.1" id="Layer_1" xmlns="http://www.w3.org/2000/svg" xmlns:xlink="http://www.w3.org/1999/xlink" x="0px" y="0px"
	 viewBox="0 0 50 41.1" style="enable-background:new 0 0 50 41.1;" xml:space="preserve">
<style type="text/css">
	.st0{fill:#2A2B2F;}
</style>
<g>
	<path class="st0" d="M28.9,11.4l-3.3,9.3h0.6l0.2-0.4c1.2-2,1.8-3,1.9-3.1c0.8-1,1.5-1.6,2.1-1.9c0.6-0.3,1.4-0.4,2.2-0.4h8.3
		L25.1,41.1h7L50,11.4l0,0H28.9z"/>
	<path class="st0" d="M24.8,22.1h-0.6c-1.4,2.6-2.8,4.3-4.1,5c-1.4,0.7-2.7,1.1-4.1,1.1h-2c-1.4,0-2.2-0.3-2.6-1
		c-0.4-0.6-0.4-1.6-0.2-2.8l3.5-19.9c0.2-1.2,0.6-2.1,1.2-2.8c0.6-0.7,1.7-1,3.2-1L19.1,0H5.2L5.1,0.6c1.3,0,2.2,0.3,2.6,1
		c0.4,0.6,0.5,1.6,0.3,2.9L4.4,25.3c-0.2,1.2-0.6,2.1-1.2,2.8c-0.6,0.7-1.6,1-3.2,1L0,29.7h22.4L24.8,22.1z"/>
</g>
</svg>
