<?xml version="1.0" encoding="utf-8"?>
<!-- Generator: Adobe Illustrator 21.0.2, SVG Export Plug-In . SVG Version: 6.00 Build 0)  -->
<svg version="1.1" id="Layer_1" xmlns="http://www.w3.org/2000/svg" xmlns:xlink="http://www.w3.org/1999/xlink" x="0px" y="0px"
	 viewBox="0 0 512 512" style="enable-background:new 0 0 512 512;" xml:space="preserve">
<style type="text/css">
	.st0{fill:#6B6B6B;}
	.st1{fill:#6B6B6B;stroke:#FFFFFF;stroke-width:15.3729;}
</style>
<path class="st0" d="M0,0h512l0,0v512l0,0H0l0,0V0L0,0z"/>
<path class="st1" d="M84.5,146.1c-3,2.8-4.8,6.8-4.8,11.3v184.3c0,8.5,6.7,15.5,15.4,15.5h322.7c8.5,0,15.4-6.9,15.4-15.5V157.4
	c0-4.5-1.8-8.5-4.8-11.3l-172,149.5L84.5,146.1z M95,126.5c-17,0-30.8,13.8-30.8,30.7v184.7c0,16.9,13.7,30.7,30.8,30.7h322.7
	c17,0,30.8-13.8,30.8-30.7V157.2c0-16.9-13.7-30.7-30.8-30.7C417.8,126.5,95,126.5,95,126.5z M256.4,275.6l153.7-133.7H102.7
	L256.4,275.6L256.4,275.6z"/>
</svg>
