<?xml version="1.0" encoding="utf-8"?>
<!-- Generator: Adobe Illustrator 21.0.2, SVG Export Plug-In . SVG Version: 6.00 Build 0)  -->
<svg version="1.1" id="Layer_1" xmlns="http://www.w3.org/2000/svg" xmlns:xlink="http://www.w3.org/1999/xlink" x="0px" y="0px"
	 viewBox="0 0 512 512" style="enable-background:new 0 0 512 512;" xml:space="preserve">
<style type="text/css">
	.st0{fill:#D0422A;}
	.st1{fill:#FFFFFF;}
</style>
<polygon class="st0" points="0,0 512,0 512,0 512,512 512,512 0,512 0,512 0,0 "/>
<g>
	<path class="st1" d="M266.7,284.4l-18.8-14.6c-5.7-4.7-13.5-11-13.5-22.4c0-11.5,7.8-18.8,14.6-25.6c21.9-17.2,43.7-35.5,43.7-74.1
		c0-39.7-25-60.5-36.9-70.4H288L321.8,56H219.3c-28.1,0-68.7,6.7-98.4,31.2c-22.4,19.3-33.3,45.9-33.3,69.9
		c0,40.7,31.2,81.9,86.4,81.9c5.2,0,10.9-0.5,16.6-1c-2.6,6.3-5.2,11.5-5.2,20.3c0,16.2,8.3,26.1,15.6,35.4
		c-23.4,1.6-67.2,4.2-99.4,24c-30.7,18.3-40.1,44.9-40.1,63.6C61.6,420,98,456,173.5,456c89.5,0,136.9-49.5,136.9-98.6
		C310.4,321.4,289.6,303.7,266.7,284.4z M198.5,224.4c-44.8,0-65.1-57.9-65.1-92.8c0-13.6,2.6-27.6,11.4-38.6
		c8.4-10.4,22.9-17.2,36.5-17.2c43.2,0,65.6,58.4,65.6,96c0,9.4-1,26.1-13,38.1C225.5,218.1,211.5,224.4,198.5,224.4z M199,434.1
		c-55.7,0-91.6-26.6-91.6-63.7c0-37,33.3-49.6,44.8-53.7c21.8-7.4,50-8.4,54.7-8.4c5.2,0,7.8,0,12,0.5
		c39.6,28.2,56.8,42.2,56.8,68.9C275.5,410.1,249,434.1,199,434.1z M398.1,302.1v-52.5h52.3v-26h-52.3v-52.2h-25.8v52.2h-52.1v26
		h52.1v52.5"/>
</g>
</svg>
