<?xml version="1.0" encoding="utf-8"?>
<!-- Generator: Adobe Illustrator 21.0.2, SVG Export Plug-In . SVG Version: 6.00 Build 0)  -->
<svg version="1.1" id="Layer_1" xmlns="http://www.w3.org/2000/svg" xmlns:xlink="http://www.w3.org/1999/xlink" x="0px" y="0px"
	 viewBox="0 0 512 512" style="enable-background:new 0 0 512 512;" xml:space="preserve">
<style type="text/css">
	.st0{fill:#0083BE;}
	.st1{fill:#FFFFFF;}
</style>
<polygon class="st0" points="0,0 512,0 512,0 512,512 512,512 0,512 0,512 0,0 "/>
<g>
	<path class="st1" d="M61.1,178.7h85.8v258H61.1V178.7z M104.5,54.3C75.2,54.3,56,73.6,56,98.9c0,24.8,18.6,44.6,47.4,44.6h0.6
		c29.9,0,48.5-19.8,48.5-44.6C151.9,73.6,133.8,54.3,104.5,54.3z M357.3,172.6c-45.5,0-65.9,25-77.3,42.6v-36.5h-85.7
		c1.1,24.2,0,258,0,258H280V292.6c0-7.7,0.6-15.4,2.8-20.9c6.2-15.4,20.3-31.4,44-31.4c31,0,43.4,23.7,43.4,58.3v138H456V288.7
		C456,209.5,413.7,172.6,357.3,172.6L357.3,172.6z"/>
</g>
</svg>
