<?xml version="1.0" encoding="utf-8"?>
<!-- Generator: Adobe Illustrator 21.0.2, SVG Export Plug-In . SVG Version: 6.00 Build 0)  -->
<svg version="1.1" id="Layer_1" xmlns="http://www.w3.org/2000/svg" xmlns:xlink="http://www.w3.org/1999/xlink" x="0px" y="0px"
	 viewBox="0 0 512 512" style="enable-background:new 0 0 512 512;" xml:space="preserve">
<style type="text/css">
	.st0{fill:#CA2127;}
	.st1{fill:#FFFFFF;}
</style>
<polygon class="st0" points="0,0 512,0 512,0 512,512 512,512 0,512 0,512 0,0 "/>
<path class="st1" d="M265.4,56c-109.2,0-164.2,78.3-164.2,143.5c0,39.5,15,74.7,47,87.8c5.3,2.2,10,0.1,11.5-5.7
	c1.1-4,3.6-14.2,4.7-18.4c1.5-5.8,0.9-7.8-3.3-12.8c-9.3-10.9-15.2-25-15.2-45.1c0-58.1,43.4-110,113.1-110
	c61.7,0,95.6,37.7,95.6,88c0,66.3-29.3,122.2-72.8,122.2c-24,0-42-19.9-36.3-44.3c6.9-29.1,20.3-60.5,20.3-81.5
	c0-18.8-10.1-34.5-31-34.5c-24.6,0-44.3,25.4-44.3,59.5c0,21.7,7.3,36.4,7.3,36.4s-25.1,106.5-29.6,125.2
	c-8.8,37.2-1.3,82.7-0.7,87.3c0.4,2.7,3.9,3.4,5.5,1.3c2.3-3,31.5-39.1,41.5-75.2c2.8-10.2,16.2-63.1,16.2-63.1
	c8,15.2,31.3,28.6,56.1,28.6c73.9,0,124-67.3,124-157.4C410.8,119.5,353.1,56,265.4,56z"/>
</svg>
