<?xml version="1.0" encoding="utf-8"?>
<!-- Generator: Adobe Illustrator 21.0.2, SVG Export Plug-In . SVG Version: 6.00 Build 0)  -->
<svg version="1.1" id="Layer_1" xmlns="http://www.w3.org/2000/svg" xmlns:xlink="http://www.w3.org/1999/xlink" x="0px" y="0px"
	 viewBox="0 0 512 512" style="enable-background:new 0 0 512 512;" xml:space="preserve">
<style type="text/css">
	.st0{fill:#E84352;}
	.st1{fill:#FFFFFF;}
</style>
<path class="st0" d="M0,0h512c0,0,0,0,0,0v512c0,0,0,0,0,0H0c0,0,0,0,0,0L0,0C0,0,0,0,0,0z"/>
<path class="st1" d="M388.8,88.9H123.2c-26.1,0-47.2,21.3-47.2,47.6v131.9c0,2.4,0.2,4.9,0.5,7.2c-0.4,3.5-0.5,7.1-0.5,10.7
	c0,75.6,80.6,136.9,180,136.9c99.4,0,180-61.3,180-136.9c0-3.6-0.2-7.1-0.5-10.7c0.4-2.3,0.5-4.8,0.5-7.2V136.5
	C436,110.2,414.8,88.9,388.8,88.9L388.8,88.9z M366.4,221.5l-93,93c-4.7,4.7-10.9,7-17.1,7c-6.4,0.2-12.8-2.1-17.7-7l-92.9-93
	c-9.3-9.3-9.3-24.5,0-33.8c9.3-9.3,24.4-9.4,33.8,0l76.6,76.6l76.6-76.6c9.3-9.3,24.5-9.3,33.8,0C375.7,197,375.7,212.1,366.4,221.5
	L366.4,221.5z"/>
</svg>
