<?xml version="1.0" encoding="UTF-8" standalone="no"?>
<svg width="32px" height="32px" viewBox="0 0 32 32" version="1.1" xmlns="http://www.w3.org/2000/svg" xmlns:xlink="http://www.w3.org/1999/xlink">
    <!-- Generator: Sketch 49 (51002) - http://www.bohemiancoding.com/sketch -->
    <title>reddit-icon</title>
    <desc>Created with Sketch.</desc>
    <defs/>
    <g id="reddit-icon" stroke="none" stroke-width="1" fill="none" fill-rule="evenodd">
        <g id="reddit">
            <rect id="Rectangle" fill="#FE5022" x="0" y="0" width="32" height="32"/>
            <g id="Group" transform="translate(3.000000, 3.000000)" fill="#ECE5DD" fill-rule="nonzero">
                <path d="M16.7327254,4.22829602 C15.5463099,4.22829602 14.5810915,3.28121891 14.5810915,2.11710199 C14.5810915,0.952985075 15.5463099,0.0059079602 16.7327254,0.0059079602 C17.9191408,0.0059079602 18.8843592,0.952985075 18.8843592,2.11710199 C18.8843592,3.28121891 17.9191408,4.22829602 16.7327254,4.22829602 Z" id="Shape"/>
                <path d="M13.5,24.9940299 C7.41238732,24.9940299 2.45972535,20.941791 2.45972535,15.9609453 C2.45972535,10.9800995 7.41238732,6.9278607 13.5,6.9278607 C19.5876127,6.9278607 24.5402746,10.9800995 24.5402746,15.9609453 C24.5402746,20.941791 19.5876127,24.9940299 13.5,24.9940299 Z" id="Shape"/>
                <path d="M24.1752676,13.8978234 C23.6767183,12.1782338 22.5699718,10.6262438 20.9746901,9.40970149 L20.4556056,9.01386816 L20.9330493,8.57039801 C21.5927746,7.95758706 22.4604507,7.62008706 23.3762324,7.62008706 C25.3406408,7.62008706 26.9387746,9.18818408 26.9387746,11.1156716 C26.9387746,12.4248134 26.1666127,13.6515547 24.9715775,14.2410448 L24.3619859,14.541791 L24.1752676,13.8978234 Z" id="Shape"/>
                <path d="M2.02829577,14.2409826 C0.833323944,13.6514303 0.0611619718,12.4246891 0.0611619718,11.1156095 C0.0611619718,9.18812189 1.65929577,7.62002488 3.62370423,7.62002488 C4.53973944,7.62002488 5.40747887,7.95746269 6.06701408,8.57027363 L6.54439437,9.01374378 L6.02530986,9.40951493 C4.43002817,10.6260572 3.32321831,12.1780473 2.82466901,13.897699 L2.6379507,14.5416667 L2.02829577,14.2409826 Z" id="Shape"/>
            </g>
            <g id="Group" transform="translate(9.000000, 15.000000)" fill="#FE5022" fill-rule="nonzero">
                <path d="M2.1304375,3.94271676 C0.9605,3.94271676 0.0086875,3.06242775 0.0086875,1.98040462 C0.0086875,0.898381503 0.9605,0.0180924855 2.1304375,0.0180924855 C3.300375,0.0180924855 4.2521875,0.898381503 4.2521875,1.98040462 C4.2521875,3.06242775 3.300375,3.94271676 2.1304375,3.94271676 Z" id="Shape"/>
                <path d="M11.8695625,3.94271676 C10.699625,3.94271676 9.7478125,3.06242775 9.7478125,1.98040462 C9.7478125,0.898381503 10.699625,0.0180924855 11.8695625,0.0180924855 C13.0395,0.0180924855 13.9913125,0.898381503 13.9913125,1.98040462 C13.9913125,3.06242775 13.0395,3.94271676 11.8695625,3.94271676 Z" id="Shape"/>
                <path d="M12.424625,7.32867052 C11.005,8.42277457 9.0784375,9.02537572 7,9.02537572 C4.9215625,9.02537572 2.995,8.42277457 1.575375,7.32867052 C1.354,7.15815029 1.025125,7.18572254 0.8405625,7.39046243 C0.6560625,7.59520231 0.686,7.89942197 0.907375,8.0700578 C2.5141875,9.30849711 4.677875,9.99046243 7.0000625,9.99046243 C9.32225,9.99046243 11.4859375,9.30849711 13.09275,8.07011561 C13.314125,7.89947977 13.344,7.59526012 13.1595625,7.39052023 C12.9749375,7.18572254 12.6459375,7.15809249 12.424625,7.32867052 Z" id="Shape"/>
            </g>
            <path d="M16.0000171,10.9999388 L16.0000171,6.60205837 L17.0901771,6.2309398 C17.3816891,7.31077434 18.3512792,8.10635174 19.5000171,8.10635174 C20.8785745,8.10635174 22,6.96100411 22,5.55317587 C22,4.14534764 20.8785146,3 19.5000171,3 C18.2470608,3 17.2066741,3.94623919 17.0274664,5.17581796 L15.3418841,5.74965401 C15.1377,5.81914316 15,6.01427556 15,6.23405947 L15,11 L16.0000171,11 L16.0000171,10.9999388 Z M19.5000171,4.02123365 C20.3271755,4.02123365 20.9999829,4.70841776 20.9999829,5.5531147 C20.9999829,6.39781164 20.3271156,7.08499576 19.5000171,7.08499576 C18.6729186,7.08499576 18.0000513,6.39781164 18.0000513,5.5531147 C18.0000513,4.70841776 18.6728587,4.02123365 19.5000171,4.02123365 Z" id="Shape" fill="#ECE5DD" fill-rule="nonzero"/>
        </g>
    </g>
</svg>