<?xml version="1.0" encoding="utf-8"?>
<!-- Generator: Adobe Illustrator 21.0.2, SVG Export Plug-In . SVG Version: 6.00 Build 0)  -->
<svg version="1.1" id="Layer_1" xmlns="http://www.w3.org/2000/svg" xmlns:xlink="http://www.w3.org/1999/xlink" x="0px" y="0px"
	 viewBox="0 0 512 512" style="enable-background:new 0 0 512 512;" xml:space="preserve">
<style type="text/css">
	.st0{fill:#EF4623;}
	.st1{fill:#FFFFFF;}
</style>
<polygon class="st0" points="0,0 512,0 512,0 512,512 512,512 0,512 0,512 0,0 "/>
<path class="st1" d="M342,270.9c1,2.6,1.5,5.4,1.5,8.1c0,5.4-1.9,10.7-5,15.1c-3.1,4.3-7.6,7.6-12.8,9h0c0,0-0.1,0-0.1,0
	c0,0-0.1,0-0.1,0c-2.4,0.8-4.9,1.2-7.4,1.2c-5.8,0-11.5-2.1-16.1-5.7c-4.5-3.6-8-8.7-9-14.7h0c0,0,0,0,0-0.1c0,0,0,0,0-0.1h0
	c-0.3-1.6-0.5-3.1-0.5-4.7c0-5.3,1.8-10.3,4.7-14.5c2.9-4.1,7.1-7.4,11.9-9.1c0,0,0,0,0,0c0,0,0,0,0,0c2.8-1,5.7-1.5,8.5-1.5
	c5.2,0,10.4,1.6,14.7,4.5c4.3,2.9,7.8,7,9.5,12.2C342,270.7,342,270.8,342,270.9C342,270.8,342,270.9,342,270.9L342,270.9L342,270.9
	z M326,335.3c-2.1-1.3-4.4-2.1-6.9-2.1c-2,0-4.1,0.6-6,1.8c-17.7,10.6-38.5,16.3-59.1,16.3c-15.5,0-30.9-3.3-44.8-10.1l-0.1,0
	l-0.1,0c-2.1-0.9-4.5-2.7-7.1-4.4c-1.3-0.9-2.7-1.7-4.3-2.3c-1.5-0.7-3.2-1.1-5-1.1c-1.5,0-3.1,0.3-4.6,1c-0.1,0-0.2,0.1-0.2,0.1h0
	c-2.4,0.9-4.3,2.6-5.6,4.6c-1.3,2.1-1.9,4.5-1.9,6.9c0,2.2,0.5,4.3,1.6,6.3c1,1.9,2.6,3.5,4.6,4.6c19.9,13.4,43.4,19.5,67,19.5
	c21.2,0,42.6-4.9,61.6-13.9l0.1-0.1l0.1-0.1c2.5-1.5,5.8-2.8,9-4.8c1.6-1,3.1-2.1,4.4-3.6c1.3-1.5,2.3-3.3,2.9-5.5v0
	c0.2-1,0.4-1.9,0.4-2.8c0-1.8-0.4-3.4-1.2-5C329.8,338.5,328,336.6,326,335.3L326,335.3z M186.1,303c0,0,0.1,0,0.1,0
	c2.5,0.9,5.2,1.4,7.8,1.4c6.5,0,12.8-2.7,17.5-7c4.8-4.3,8-10.5,8-17.5c0-0.2,0-0.4,0-0.6c0-0.3,0-0.7,0-1c0-6.9-3.2-13.1-7.9-17.4
	c-4.7-4.4-11-7-17.5-7c-1.7,0-3.5,0.2-5.2,0.6c0,0,0,0-0.1,0h0c-8.6,1.8-16.2,8.2-18.9,17v0c-0.8,2.4-1.2,4.9-1.2,7.3
	c0,5.4,1.8,10.6,4.8,14.9C176.5,298.1,180.8,301.4,186.1,303C186,303,186,303,186.1,303L186.1,303z M455.9,240.2L455.9,240.2
	c0.1,0.9,0.1,1.8,0.1,2.7c0,9.7-3.1,19.1-8.3,27c-4.9,7.4-11.5,13.6-19.3,17.8c0.5,3.9,0.8,7.8,0.8,11.7c0,20.9-7.2,41.5-19.8,58v0
	h0c-23.2,30.9-58.9,49.1-94.9,58.3l0,0c-19.2,4.7-39,7-58.8,7c-29.5,0-59-5.3-86.5-16.4l0,0h0c-28.5-11.8-55.7-30.4-72.4-57.8
	c-9-14.6-13.9-31.8-13.9-49c0-3.9,0.3-7.8,0.8-11.7c-7.5-4.2-14-10.2-18.8-17.4c-5.2-7.7-8.4-16.7-8.8-26.2v-0.1
	c0-13.3,5.8-26,14.8-35.3c9-9.3,21.3-15.4,34.5-15.4h0.5c1.4-0.1,2.8-0.2,4.2-0.2c6.6,0,13.3,1.1,19.6,3.5l0,0l0,0
	c5.4,2.3,10.7,5,15.5,8.8c1.5-0.8,3.2-1.7,5.1-2.4c28.9-17.1,62.5-23.7,95.2-25.6c0.3-16.2,2.3-33.2,10.2-48
	c6.6-12.3,18-21.9,31.6-25.3l0.1,0l0.1,0c5.2-1,10.4-1.5,15.6-1.5c13.8,0,27.5,3.3,40.3,8.4c5.7-8.5,13.7-15.2,23.2-18.9l0.1-0.1
	l0.1,0c5.6-1.7,11.4-2.7,17.3-2.7c6.2,0,12.5,1.1,18.4,3.8v0c0,0,0,0,0,0c0,0,0.1,0,0.1,0c8.4,3.2,15.6,9.2,20.6,16.7
	c5.1,7.5,8,16.4,8,25.7c0,1.7-0.1,3.4-0.3,5.1l0,0c0,0,0,0.1,0,0.1c-1,11.9-7,22.4-15.6,29.8c-8.6,7.5-19.7,12-31.1,12
	c-1.8,0-3.7-0.1-5.5-0.3c-11.3-0.9-21.9-6.4-29.7-14.5c-7.8-8.1-12.8-19-12.8-30.8c0-0.6,0-1.2,0.1-1.7c-10.6-4.7-21.9-8.7-33.2-8.7
	c-1.6,0-3.2,0.1-4.9,0.3h0c-8.4,0.8-16.2,6.1-20,13.7v0c-5.7,11.2-6.9,24.3-7.1,37.3c32.2,2.1,64.6,9.8,93,26.2h0l0.4,0.2
	c0.5,0.3,1.5,0.9,2.4,1.3c2-1.6,4-3.2,6.4-4.6c8.6-5.7,18.8-8.6,29-8.6c4.5,0,9.1,0.6,13.5,1.7h0l0.2,0.1c0.1,0,0.1,0,0.2,0v0
	c10.4,2.6,19.8,8.6,26.9,16.7C450.2,218.9,455,229.1,455.9,240.2L455.9,240.2L455.9,240.2z M361,134.8c0,0.4,0,0.9,0.1,1.3v0.1
	c0.2,5.6,2.8,10.8,6.9,14.7c4,3.9,9.4,6.2,14.8,6.3h0.1c0.4,0,0.8,0,1.2,0c5.5,0,10.9-2.4,15-6.2c4.1-3.9,6.8-9.1,7-14.7l0,0v0
	c0-0.4,0-0.8,0-1.3c0-5.8-2.7-11.3-7-15.5c-4.2-4.1-9.9-6.6-15.6-6.6c-1.8,0-3.6,0.2-5.4,0.8l-0.1,0l-0.1,0c-4.6,1.2-9,4.1-12.1,7.9
	C362.9,125.3,361,129.9,361,134.8L361,134.8z M123.2,221.1c-4.3-2-8.8-3.4-13.2-3.4c-0.7,0-1.5,0-2.2,0.1h-0.1l-0.1,0
	c-6.3,0.2-12.7,2.9-17.5,7.3c-4.8,4.4-8,10.3-8.2,16.9v0.1l0,0.1c0,0.5-0.1,1.1-0.1,1.6c0,4,1.2,7.9,3.3,11.5
	c1.6,2.6,3.6,5.1,5.9,7.2C98.5,246.3,110.1,232.5,123.2,221.1L123.2,221.1z M403.9,300.2c0-14.4-5.2-28.9-13.6-40.5
	c-16.8-23.4-42.8-38.6-69.9-47.1l-0.2-0.1c-5.2-1.6-10.4-3-15.7-4.2c-15.8-3.6-32.1-5.4-48.3-5.4c-21.8,0-43.5,3.2-64.4,9.7
	c-27.1,8.6-53.2,23.7-70,47.2v0c-8.5,11.7-13.5,26.2-13.5,40.7c0,5.3,0.7,10.6,2.1,15.8l0,0c3,11.6,9,22,16.7,31.1
	c7.7,9.1,17.2,16.8,27.1,23.1c2.2,1.4,4.4,2.7,6.7,3.9c28.9,16.1,62.2,23.2,95.3,23.2c5.6,0,11.2-0.2,16.8-0.6
	c33.3-2.7,66.7-12.6,93.7-32.7l0,0c8.6-6.4,16.6-14.1,22.9-22.8c6.3-8.8,11-18.5,13-29.2v0C403.5,308.3,403.9,304.3,403.9,300.2
	L403.9,300.2z M430.1,242.9c0-3.5-0.8-7-2.6-10.2l0,0l0-0.1c-2.3-4.8-6-8.5-10.5-11c-4.4-2.5-9.6-3.8-14.8-3.8
	c-4.7,0-9.4,1.1-13.5,3.1c13.2,11.5,24.8,25.3,32.3,41.5c2.4-2.1,4.5-4.7,6-7.5C429,251.2,430.1,247,430.1,242.9L430.1,242.9z"/>
</svg>
