<?xml version="1.0" encoding="utf-8"?>
<!-- Generator: Adobe Illustrator 21.0.2, SVG Export Plug-In . SVG Version: 6.00 Build 0)  -->
<svg version="1.1" id="Layer_1" xmlns="http://www.w3.org/2000/svg" xmlns:xlink="http://www.w3.org/1999/xlink" x="0px" y="0px"
	 viewBox="0 0 512 512" style="enable-background:new 0 0 512 512;" xml:space="preserve">
<style type="text/css">
	.st0{fill:#44556B;}
	.st1{fill:#FFFFFF;}
</style>
<polygon class="st0" points="0,0 512,0 512,0 512,512 512,512 0,512 0,512 0,0 "/>
<path class="st1" d="M351.7,375.5c-7.4,3.5-21.7,6.6-32.3,6.9c-32,0.9-38.2-22.5-38.5-39.4V218.5h80.3v-60.6h-80V56h-58.6
	c-1,0-2.7,0.8-2.9,3c-3.4,31.2-18,85.9-78.7,107.8v51.7h40.5v130.7c0,44.8,33,108.3,120.1,106.8c29.4-0.5,62.1-12.8,69.3-23.4
	L351.7,375.5"/>
</svg>
