<?xml version="1.0" encoding="utf-8"?>
<!-- Generator: Adobe Illustrator 21.0.2, SVG Export Plug-In . SVG Version: 6.00 Build 0)  -->
<svg version="1.1" id="Layer_1" xmlns="http://www.w3.org/2000/svg" xmlns:xlink="http://www.w3.org/1999/xlink" x="0px" y="0px"
	 viewBox="0 0 512 512" style="enable-background:new 0 0 512 512;" xml:space="preserve">
<style type="text/css">
	.st0{fill:#2984B8;}
	.st1{fill:#FFFFFF;}
</style>
<polygon class="st0" points="0,0 512,0 512,0 512,512 512,512 0,512 0,512 0,0 "/>
<path class="st1" d="M56,256.1C55.4,146,146.7,55.2,257.5,55.9c108.8,0.7,198.6,90.6,198.5,200.3c0,110-90.3,199.9-200.8,199.8
	C145.7,456,56,365.9,56,256.1L56,256.1z M176.3,416.8l0.4,0v-0.3c-0.6-2-1.2-4-1.9-6c-27-74.1-54-148.1-81.1-222.2
	c-0.5-1.3-0.6-3.4-2-3.5c-1.8-0.1-1.9,2.1-2.4,3.5c-10.4,25.3-14.8,51.8-12.9,79c3.7,51.9,25.8,94.7,65.8,128
	C152.6,404,163.7,411.6,176.3,416.8L176.3,416.8z M346,362.7c0.5-1.1,0.9-1.8,1.1-2.5c9-30,18.1-59.9,26.8-90
	c6.1-21.4,4-42.2-5.7-62.3c-3.5-7.2-7.8-14-11.9-20.8c-4.7-7.8-9.1-15.8-10.8-25c-3.7-19.3,8.4-36.1,27.8-38.7
	c0.8-0.1,1.7,0,2.3-0.9c0-1.3-1.1-1.9-2-2.5c-40.3-34.1-86.9-48.3-139.2-42.5c-38.6,4.3-72.1,20.4-100.7,46.6
	c-9.5,8.8-17.9,18.6-25.3,29.2c-0.6,0.9-1.7,1.8-1.2,2.9c0.6,1.5,2.2,0.9,3.4,0.9c3.4,0.1,6.7,0.1,10.1,0.1
	c14.5,0.2,28.9-1.4,43.3-1.9c5.6-0.2,8.7,2.1,9.1,6.6c0.4,4.2-2.6,7.3-7.9,8c-4.3,0.6-8.6,0.9-13,1.3c-6.1,0.6-6.2,0.6-4.2,6.5
	c20.4,60.8,40.9,121.6,61.3,182.4c0.5,1.4,0.5,3.1,2.2,3.9c1.2-0.8,1.4-2.1,1.8-3.3c12.1-36.3,24.3-72.7,36.4-109.1
	c0.6-1.9,1-3.7,0.3-5.7c-8.7-23.7-17.4-47.5-26-71.2c-0.9-2.5-2.5-3.3-5.1-3.5c-5.2-0.3-10.4-0.9-15.5-1.7c-4.1-0.6-6.5-3.9-6.1-7.7
	c0.4-4.1,3.1-6.5,7.3-6.7c1-0.1,2,0,2.9,0.1c19.6,1.2,39.3,2.4,58.9,1.7c11.2-0.4,22.4-1.3,33.6-1.7c4.7-0.2,7.5,2.2,7.9,6.3
	c0.4,4.2-2.1,7.4-6.8,8.1c-4.6,0.7-9.2,1.1-13.8,1.5c-6.5,0.6-6.5,0.6-4.5,6.6c20.2,60.1,40.5,120.3,60.7,180.4
	C343.9,359.7,344,361.4,346,362.7L346,362.7z M259.5,273.2c-2.1,1.8-2.2,3.6-2.8,5.1c-4.5,12.9-8.8,25.8-13.3,38.6
	c-12.2,35.4-24.4,70.9-36.6,106.3c-1.2,3.3-1.7,5.6,2.9,6.7c34.1,8.6,67.8,7.8,101.3-2.7c3.4-1.1,3.9-2.5,2.7-5.8
	c-16.4-44.5-32.6-89.1-48.8-133.6C263.3,283.1,261.5,278.4,259.5,273.2L259.5,273.2z M347.5,409.8c24.1-5.8,66.4-57.5,79.1-97.3
	c15.5-48.2,11.3-95-11.5-140.4c-1.2,1-1,1.7-0.9,2.4c2.5,22.9-1.3,45.1-8.7,66.6c-18.8,54.2-37.7,108.5-56.5,162.7
	C348.3,405.7,347.2,407.5,347.5,409.8L347.5,409.8z"/>
</svg>
